<svg xmlns="http://www.w3.org/2000/svg" xmlns:xlink="http://www.w3.org/1999/xlink" viewBox="0 0 139.44 139.45"><defs><style>.cls-1{fill-rule:evenodd;fill:url(#linear-gradient);}</style><linearGradient id="linear-gradient" x1="25.98" y1="111.69" x2="111.68" y2="25.98" gradientUnits="userSpaceOnUse"><stop offset="0" stop-color="#574fe5"/><stop offset="1" stop-color="#2ec4da"/></linearGradient></defs><title>icon-color</title><g id="Layer_2" data-name="Layer 2"><g id="Layer_1-2" data-name="Layer 1"><path class="cls-1" d="M78.81,139.45A60.7,60.7,0,0,1,18.18,78.82V72.75H72.75V18.19h6.06a60.63,60.63,0,0,1,0,121.26ZM60.63,60.63H0V54.57A54.63,54.63,0,0,1,54.57,0h6.06ZM12.56,48.5H48.5V12.56A42.51,42.51,0,0,0,12.56,48.5ZM84.88,84.88v42.06a48.61,48.61,0,0,0,42.06-42.06Zm-54.19,0a48.59,48.59,0,0,0,42.06,42.06V84.88ZM84.88,72.75h42.06A48.62,48.62,0,0,0,84.88,30.69Z"/></g></g></svg>